# xmcd
#
# Track frame offsets:
#	150
#	17016
#	37501
#	54225
#	70167
#	97643
#
# Disc length: 1637 seconds
#
# Revision: 1
# Processed by: cddbd v1.5.2PL0 Copyright (c) Steve Scherf et al.
# Submitted via: audiograbber 1.83.01
#
DISCID=33066306
DTITLE=Rival Sons - Great Western Valkyrie Tour Edition CD2
DYEAR=1900
DGENRE=Blues
TTITLE0=Too Much Love
TTITLE1=My Nature
TTITLE2=Open My Eyes (live @ Juke Joint Studio)
TTITLE3=Long As I Can See The Light (live @ Juke Joint Studio)
TTITLE4=Where I've Been (live @ Juke Joint Studio)
TTITLE5=Black Coffee
EXTD=
EXTT0=
EXTT1=
EXTT2=
EXTT3=
EXTT4=
EXTT5=
PLAYORDER=
